@startuml

<style>
root {
  BackgroundColor #4a556822 
  FontColor #718096
  LineColor #718096
  Margin 30
  Padding 10
}

stateDiagram {
  state {
    BackgroundColor #edf2f7
    LineColor #4a5568
    FontColor #2d3748
    RoundCorner 10
  }
  arrow {
    LineColor #718096
    FontColor #718096
  }
}
</style>


title Pixel - UML State Machine

[*] --> WaitTimeout : Pixel() (constructor)
WaitTimeout : entry /\n  pixelState = 9\n  display.set_pixel(x,y,pixelState)\n  myTimer.start()
WaitTimeout --> WaitTimeout : Timeout /\n  if pixelState==0 then pixelState=9 else pixelState=0\n  myTimer.start()\n  display.set_pixel(x,y,pixelState)

@enduml
